<svg width="16" height="15" viewBox="0 0 16 15" fill="none" xmlns="http://www.w3.org/2000/svg">
<path fill-rule="evenodd" clip-rule="evenodd" d="M1.33325 7.5C1.33325 4.04813 4.31792 1.25 7.99992 1.25C11.6819 1.25 14.6666 4.04813 14.6666 7.5C14.6666 10.9519 11.6819 13.75 7.99992 13.75C4.31792 13.75 1.33325 10.9519 1.33325 7.5ZM7.99992 2.5C6.58543 2.5 5.22888 3.02678 4.22868 3.96447C3.22849 4.90215 2.66659 6.17392 2.66659 7.5C2.66659 8.82608 3.22849 10.0979 4.22868 11.0355C5.22888 11.9732 6.58543 12.5 7.99992 12.5C9.41441 12.5 10.771 11.9732 11.7712 11.0355C12.7713 10.0979 13.3333 8.82608 13.3333 7.5C13.3333 6.17392 12.7713 4.90215 11.7712 3.96447C10.771 3.02678 9.41441 2.5 7.99992 2.5Z" fill="#064E4E"/>
<path fill-rule="evenodd" clip-rule="evenodd" d="M8.66667 4.375C8.66667 4.20924 8.59643 4.05027 8.4714 3.93306C8.34638 3.81585 8.17681 3.75 8 3.75C7.82319 3.75 7.65362 3.81585 7.5286 3.93306C7.40357 4.05027 7.33333 4.20924 7.33333 4.375V6.875H4.66667C4.48986 6.875 4.32029 6.94085 4.19526 7.05806C4.07024 7.17527 4 7.33424 4 7.5C4 7.66576 4.07024 7.82473 4.19526 7.94194C4.32029 8.05915 4.48986 8.125 4.66667 8.125H7.33333V10.625C7.33333 10.7908 7.40357 10.9497 7.5286 11.0669C7.65362 11.1842 7.82319 11.25 8 11.25C8.17681 11.25 8.34638 11.1842 8.4714 11.0669C8.59643 10.9497 8.66667 10.7908 8.66667 10.625V8.125H11.3333C11.5101 8.125 11.6797 8.05915 11.8047 7.94194C11.9298 7.82473 12 7.66576 12 7.5C12 7.33424 11.9298 7.17527 11.8047 7.05806C11.6797 6.94085 11.5101 6.875 11.3333 6.875H8.66667V4.375Z" fill="#064E4E"/>
</svg>
