<svg width="29" height="19" viewBox="0 0 29 19" fill="none" xmlns="http://www.w3.org/2000/svg">
<path d="M9.73072 19C9.56383 18.9948 9.39985 18.9581 9.24882 18.892C9.09779 18.826 8.96291 18.7321 8.85243 18.616L0.566719 10.9366C0.40874 10.8417 0.276097 10.7147 0.178804 10.5653C0.0815108 10.4159 0.0221112 10.248 0.00508973 10.0742C-0.0119318 9.9004 0.0138698 9.7253 0.0805463 9.56211C0.147223 9.39892 0.253031 9.2519 0.389983 9.13215C0.526935 9.01241 0.691451 8.92306 0.871109 8.87087C1.05077 8.81867 1.24087 8.80499 1.42707 8.83086C1.61327 8.85672 1.79069 8.92146 1.94595 9.02017C2.1012 9.11889 2.23023 9.24901 2.32329 9.4007L9.73072 16.22L27.081 0.185376C27.3146 0.0450103 27.5923 -0.0186077 27.8695 0.00471857C28.1468 0.0280449 28.4075 0.136965 28.61 0.314021C28.8125 0.491077 28.945 0.726016 28.9863 0.981182C29.0275 1.23635 28.9752 1.49697 28.8376 1.72126L10.609 18.616C10.4985 18.7321 10.3636 18.826 10.2126 18.892C10.0616 18.9581 9.89761 18.9948 9.73072 19Z" fill="#064E4E"/>
</svg>
