<svg width="24" height="24" viewBox="0 0 24 24" fill="none" xmlns="http://www.w3.org/2000/svg">
<path d="M12.75 8.99998H11.25V4.06029L8.78063 6.53061C8.63989 6.67134 8.44902 6.7504 8.25 6.7504C8.05098 6.7504 7.86011 6.67133 7.71938 6.5306C7.57864 6.38987 7.49958 6.199 7.49958 5.99998C7.49958 5.80096 7.57864 5.61009 7.71937 5.46935L11.4694 1.71935C11.539 1.64962 11.6217 1.5943 11.7128 1.55656C11.8038 1.51882 11.9014 1.49939 12 1.49939C12.0986 1.49939 12.1962 1.51882 12.2872 1.55656C12.3783 1.5943 12.461 1.64962 12.5306 1.71935L16.2806 5.46935C16.4214 5.61009 16.5004 5.80096 16.5004 5.99998C16.5004 6.199 16.4214 6.38987 16.2806 6.53061C16.1399 6.67134 15.949 6.7504 15.75 6.7504C15.551 6.7504 15.3601 6.67134 15.2194 6.53061L12.75 4.06029V8.99998ZM18.75 8.99998H12.75V12.75C12.75 12.9489 12.671 13.1397 12.5303 13.2803C12.3897 13.421 12.1989 13.5 12 13.5C11.8011 13.5 11.6103 13.421 11.4697 13.2803C11.329 13.1397 11.25 12.9489 11.25 12.75V8.99998H5.25C4.85218 8.99998 4.47064 9.15802 4.18934 9.43932C3.90804 9.72062 3.75 10.1022 3.75 10.5V19.5C3.75 19.8978 3.90804 20.2793 4.18934 20.5606C4.47064 20.8419 4.85218 21 5.25 21H18.75C19.1478 21 19.5294 20.8419 19.8107 20.5606C20.092 20.2793 20.25 19.8978 20.25 19.5V10.5C20.25 10.1022 20.092 9.72062 19.8107 9.43932C19.5294 9.15802 19.1478 8.99998 18.75 8.99998Z" fill="#064E4E"/>
</svg>
