<svg width="18" height="18" viewBox="0 0 18 18" fill="none" xmlns="http://www.w3.org/2000/svg">
<rect x="10.1923" y="10.1923" width="7.30769" height="7.30769" rx="2.5" stroke="#F2F9F9"/>
<path fill-rule="evenodd" clip-rule="evenodd" d="M3 0C1.34315 0 0 1.34315 0 3V5.30769C0 6.96455 1.34315 8.30769 3 8.30769H5.30769C6.96455 8.30769 8.30769 6.96455 8.30769 5.30769V3C8.30769 1.34315 6.96455 0 5.30769 0H3ZM6.74829 2.11471C6.84729 1.95081 6.80501 1.73847 6.65078 1.62499C6.47536 1.49592 6.22698 1.54538 6.11437 1.73179L3.92732 5.35247C3.77527 5.60419 3.43988 5.67096 3.20302 5.49668L2.12324 4.70221C1.94106 4.56816 1.68309 4.61952 1.56615 4.81313C1.46333 4.98334 1.50724 5.20387 1.66741 5.32172L3.40268 6.5985C3.63954 6.77278 3.97493 6.706 4.12698 6.45429L6.74829 2.11471Z" fill="#F2F9F9"/>
<path fill-rule="evenodd" clip-rule="evenodd" d="M12.6923 0C11.0355 0 9.69232 1.34315 9.69232 3V5.30769C9.69232 6.96455 11.0355 8.30769 12.6923 8.30769H15C16.6569 8.30769 18 6.96455 18 5.30769V3C18 1.34315 16.6569 0 15 0H12.6923ZM16.4406 2.11471C16.5396 1.95081 16.4973 1.73847 16.3431 1.62499C16.1677 1.49592 15.9193 1.54538 15.8067 1.73179L13.6196 5.35247C13.4676 5.60419 13.1322 5.67096 12.8953 5.49668L11.8155 4.70221C11.6334 4.56816 11.3754 4.61952 11.2585 4.81313C11.1556 4.98334 11.1995 5.20387 11.3597 5.32172L13.095 6.5985C13.3319 6.77278 13.6672 6.706 13.8193 6.45429L16.4406 2.11471Z" fill="#F2F9F9"/>
<path fill-rule="evenodd" clip-rule="evenodd" d="M3 9.69226C1.34315 9.69226 0 11.0354 0 12.6923V15C0 16.6568 1.34315 18 3 18H5.30769C6.96455 18 8.30769 16.6568 8.30769 15V12.6923C8.30769 11.0354 6.96455 9.69226 5.30769 9.69226H3ZM6.74829 11.807C6.84729 11.6431 6.80501 11.4308 6.65078 11.3173C6.47536 11.1882 6.22698 11.2377 6.11437 11.4241L3.92732 15.0448C3.77527 15.2965 3.43988 15.3633 3.20302 15.189L2.12324 14.3945C1.94106 14.2605 1.68309 14.3118 1.56615 14.5054C1.46333 14.6757 1.50724 14.8962 1.66741 15.014L3.40268 16.2908C3.63954 16.4651 3.97493 16.3983 4.12698 16.1466L6.74829 11.807Z" fill="#F2F9F9"/>
</svg>
