<svg width="16" height="15" viewBox="0 0 16 15" fill="none" xmlns="http://www.w3.org/2000/svg">
<g clip-path="url(#clip0_1_842)">
<path d="M8 9.375C9.10457 9.375 10 8.53553 10 7.5C10 6.46447 9.10457 5.625 8 5.625C6.89543 5.625 6 6.46447 6 7.5C6 8.53553 6.89543 9.375 8 9.375Z" stroke="#064E4E" stroke-width="1.5"/>
<path d="M9.17672 1.345C8.93206 1.25 8.62139 1.25 8.00006 1.25C7.37872 1.25 7.06806 1.25 6.82339 1.345C6.66151 1.40782 6.51442 1.49993 6.39054 1.61608C6.26665 1.73222 6.1684 1.87011 6.10139 2.02187C6.04006 2.16125 6.01539 2.32438 6.00606 2.56125C6.0019 2.73249 5.95139 2.89994 5.85926 3.04786C5.76714 3.19578 5.63642 3.31932 5.47939 3.40688C5.31999 3.49065 5.14048 3.53506 4.95775 3.53594C4.77501 3.53681 4.59503 3.49412 4.43472 3.41188C4.21072 3.30063 4.04872 3.23938 3.88806 3.21938C3.5376 3.17617 3.18319 3.26519 2.90272 3.46687C2.69339 3.61875 2.53739 3.87063 2.22672 4.375C1.91606 4.87937 1.76006 5.13125 1.72606 5.37812C1.70315 5.54091 1.71467 5.70633 1.75997 5.86493C1.80527 6.02354 1.88345 6.17223 1.99006 6.3025C2.08872 6.4225 2.22672 6.52312 2.44072 6.64937C2.75606 6.835 2.95872 7.15125 2.95872 7.5C2.95872 7.84875 2.75606 8.165 2.44072 8.35C2.22672 8.47687 2.08806 8.5775 1.99006 8.6975C1.88345 8.82777 1.80527 8.97646 1.75997 9.13507C1.71467 9.29367 1.70315 9.45909 1.72606 9.62188C1.76072 9.86813 1.91606 10.1206 2.22606 10.625C2.53739 11.1294 2.69272 11.3812 2.90272 11.5331C3.04168 11.6331 3.20028 11.7064 3.36946 11.7488C3.53864 11.7913 3.71509 11.8021 3.88872 11.7806C4.04872 11.7606 4.21072 11.6994 4.43472 11.5881C4.59503 11.5059 4.77501 11.4632 4.95775 11.4641C5.14048 11.4649 5.31999 11.5093 5.47939 11.5931C5.80139 11.7681 5.99272 12.09 6.00606 12.4388C6.01539 12.6763 6.03939 12.8387 6.10139 12.9781C6.1684 13.1299 6.26665 13.2678 6.39054 13.3839C6.51442 13.5001 6.66151 13.5922 6.82339 13.655C7.06806 13.75 7.37872 13.75 8.00006 13.75C8.62139 13.75 8.93206 13.75 9.17672 13.655C9.3386 13.5922 9.48569 13.5001 9.60957 13.3839C9.73346 13.2678 9.83171 13.1299 9.89872 12.9781C9.96006 12.8387 9.98472 12.6763 9.99406 12.4388C10.0074 12.09 10.1987 11.7675 10.5207 11.5931C10.6801 11.5093 10.8596 11.4649 11.0424 11.4641C11.2251 11.4632 11.4051 11.5059 11.5654 11.5881C11.7894 11.6994 11.9514 11.7606 12.1114 11.7806C12.285 11.8021 12.4615 11.7913 12.6307 11.7488C12.7998 11.7064 12.9584 11.6331 13.0974 11.5331C13.3074 11.3819 13.4627 11.1294 13.7734 10.625C14.0841 10.1206 14.2401 9.86875 14.2741 9.62188C14.297 9.45909 14.2854 9.29367 14.2401 9.13507C14.1948 8.97646 14.1167 8.82777 14.0101 8.6975C13.9114 8.5775 13.7734 8.47688 13.5594 8.35063C13.4032 8.26163 13.2737 8.13687 13.1831 7.98808C13.0925 7.83928 13.0437 7.67133 13.0414 7.5C13.0414 7.15125 13.2441 6.835 13.5594 6.65C13.7734 6.52313 13.9121 6.4225 14.0101 6.3025C14.1167 6.17223 14.1948 6.02354 14.2401 5.86493C14.2854 5.70633 14.297 5.54091 14.2741 5.37812C14.2394 5.13187 14.0841 4.87937 13.7741 4.375C13.4627 3.87063 13.3074 3.61875 13.0974 3.46687C12.9584 3.36693 12.7998 3.29363 12.6307 3.25117C12.4615 3.2087 12.285 3.1979 12.1114 3.21938C11.9514 3.23938 11.7894 3.30063 11.5647 3.41188C11.4045 3.49401 11.2246 3.53664 11.042 3.53576C10.8594 3.53489 10.68 3.49054 10.5207 3.40688C10.3637 3.31932 10.233 3.19578 10.1408 3.04786C10.0487 2.89994 9.99821 2.73249 9.99406 2.56125C9.98472 2.32375 9.96072 2.16125 9.89872 2.02187C9.83171 1.87011 9.73346 1.73222 9.60957 1.61608C9.48569 1.49993 9.3386 1.40782 9.17672 1.345Z" stroke="#064E4E" stroke-width="1.5"/>
</g>
<defs>
<clipPath id="clip0_1_842">
<rect width="16" height="15" fill="white"/>
</clipPath>
</defs>
</svg>
